<svg width="100%" viewBox="0 0 680 380" xmlns="http://www.w3.org/2000/svg">

<defs>
<clipPath id="bc"><rect x="0" y="0" width="680" height="380" rx="12"/></clipPath>
</defs>

<g clip-path="url(#bc)">

<!-- Background -->
<rect x="0" y="0" width="680" height="380" fill="#2b5a7e"/>

<!-- Subtle grid -->
<g opacity="0.04" stroke="#fff" stroke-width="0.5">
<line x1="0" y1="60" x2="680" y2="60"/><line x1="0" y1="120" x2="680" y2="120"/>
<line x1="0" y1="180" x2="680" y2="180"/><line x1="0" y1="240" x2="680" y2="240"/>
<line x1="0" y1="300" x2="680" y2="300"/>
<line x1="113" y1="0" x2="113" y2="380"/><line x1="226" y1="0" x2="226" y2="380"/>
<line x1="340" y1="0" x2="340" y2="380"/><line x1="453" y1="0" x2="453" y2="380"/>
<line x1="566" y1="0" x2="566" y2="380"/>
</g>

<!-- SOURCE: PostgreSQL Slonik (left) -->
<g transform="translate(52, 22) scale(1.5)">
<path d="M40 4 C36 1 30 0 24 2 C20 0 15 0 11 2 C7 1 3 3 1 7 C-1 11 0 16 2 20 C1 23 1 27 2 30 C3 34 5 37 8 38 L8 46 C8 48 10 49 12 49 L14 49 C16 49 17 48 17 46 L17 40 C19 41 22 41 24 41 C26 41 29 41 31 40 L31 46 C31 48 32 49 34 49 L36 49 C38 49 39 48 39 46 L39 38 C42 37 44 34 45 30 C46 27 46 23 45 20 C47 16 48 11 46 7 C44 3 42 4 40 4Z" fill="#336791" stroke="#264d73" stroke-width="0.8"/>
<ellipse cx="13" cy="15" rx="5.5" ry="8" fill="#264d73" opacity="0.4"/>
<path d="M22 5 C26 3 32 3 37 5 C35 8 28 9 22 5Z" fill="#3d7aab" opacity="0.3"/>
<circle cx="30" cy="16" r="4.5" fill="#fff"/>
<circle cx="31" cy="15.5" r="2.2" fill="#1a1a2e"/>
<circle cx="32" cy="14.5" r="0.8" fill="#fff"/>
<path d="M7 25 C3 28 1 33 2 37 C3 40 5 42 7 41 C9 40 8 37 9 33 C10 30 8 27 7 25" fill="#2d6089" stroke="#264d73" stroke-width="0.6"/>
<path d="M10 33 C8 37 8 40 10 42 C11 43 12 42 12 40 C12 38 11 35 10 33Z" fill="#f5e6c8" stroke="#d4c5a0" stroke-width="0.4"/>
<path d="M14 32 C18 34 22 33 24 31" fill="none" stroke="#264d73" stroke-width="0.5" opacity="0.5"/>
<animateTransform attributeName="transform" type="translate" values="52,22;53,22;52,22" dur="3s" repeatCount="indefinite" additive="replace"/>
</g>

<!-- TARGET: PostgreSQL Slonik (right) -->
<g transform="translate(530, 22) scale(1.5)">
<path d="M40 4 C36 1 30 0 24 2 C20 0 15 0 11 2 C7 1 3 3 1 7 C-1 11 0 16 2 20 C1 23 1 27 2 30 C3 34 5 37 8 38 L8 46 C8 48 10 49 12 49 L14 49 C16 49 17 48 17 46 L17 40 C19 41 22 41 24 41 C26 41 29 41 31 40 L31 46 C31 48 32 49 34 49 L36 49 C38 49 39 48 39 46 L39 38 C42 37 44 34 45 30 C46 27 46 23 45 20 C47 16 48 11 46 7 C44 3 42 4 40 4Z" fill="#336791" stroke="#264d73" stroke-width="0.8"/>
<ellipse cx="13" cy="15" rx="5.5" ry="8" fill="#264d73" opacity="0.4"/>
<path d="M22 5 C26 3 32 3 37 5 C35 8 28 9 22 5Z" fill="#3d7aab" opacity="0.3"/>
<circle cx="30" cy="16" r="4.5" fill="#fff"/>
<circle cx="31" cy="15.5" r="2.2" fill="#1a1a2e"/>
<circle cx="32" cy="14.5" r="0.8" fill="#fff"/>
<path d="M7 25 C3 28 1 33 2 37 C3 40 5 42 7 41 C9 40 8 37 9 33 C10 30 8 27 7 25" fill="#2d6089" stroke="#264d73" stroke-width="0.6"/>
<path d="M10 33 C8 37 8 40 10 42 C11 43 12 42 12 40 C12 38 11 35 10 33Z" fill="#f5e6c8" stroke="#d4c5a0" stroke-width="0.4"/>
<path d="M14 32 C18 34 22 33 24 31" fill="none" stroke="#264d73" stroke-width="0.5" opacity="0.5"/>
<animateTransform attributeName="transform" type="translate" values="530,22;531,22;530,22" dur="3.2s" repeatCount="indefinite" additive="replace"/>
</g>

<!-- Labels under logos -->
<text x="88" y="103" text-anchor="middle" font-family="system-ui, -apple-system, sans-serif" font-size="10" font-weight="500" fill="#fff" opacity="0.45" letter-spacing="1.5">SOURCE</text>
<text x="592" y="103" text-anchor="middle" font-family="system-ui, -apple-system, sans-serif" font-size="10" font-weight="500" fill="#fff" opacity="0.45" letter-spacing="1.5">TARGET</text>

<!-- Dashed guide paths -->
<path d="M145,55 C260,30 420,30 535,55" fill="none" stroke="#fff" stroke-width="0.5" stroke-dasharray="4 4" opacity="0.08"/>
<path d="M150,68 C270,90 410,90 530,68" fill="none" stroke="#fff" stroke-width="0.5" stroke-dasharray="4 4" opacity="0.06"/>

<!-- Animated data flow particles — stream 1 upper arc -->
<circle r="3.5" fill="#f0c674" opacity="0">
<animateMotion path="M145,55 C260,30 420,30 535,55" dur="2s" repeatCount="indefinite"/>
<animate attributeName="opacity" values="0;0.9;0.9;0" dur="2s" repeatCount="indefinite"/>
<animate attributeName="r" values="2;3.5;2" dur="2s" repeatCount="indefinite"/>
</circle>
<circle r="2.5" fill="#8fbcdb" opacity="0">
<animateMotion path="M145,55 C260,30 420,30 535,55" dur="2s" begin="0.45s" repeatCount="indefinite"/>
<animate attributeName="opacity" values="0;0.85;0.85;0" dur="2s" begin="0.45s" repeatCount="indefinite"/>
</circle>
<circle r="3" fill="#b5bd68" opacity="0">
<animateMotion path="M145,55 C260,30 420,30 535,55" dur="2s" begin="0.9s" repeatCount="indefinite"/>
<animate attributeName="opacity" values="0;0.8;0.8;0" dur="2s" begin="0.9s" repeatCount="indefinite"/>
</circle>
<circle r="2" fill="#fff" opacity="0">
<animateMotion path="M145,55 C260,30 420,30 535,55" dur="2s" begin="1.35s" repeatCount="indefinite"/>
<animate attributeName="opacity" values="0;0.7;0.7;0" dur="2s" begin="1.35s" repeatCount="indefinite"/>
</circle>

<!-- Stream 2 lower arc -->
<circle r="2.5" fill="#de935f" opacity="0">
<animateMotion path="M150,68 C270,90 410,90 530,68" dur="2.6s" begin="0.2s" repeatCount="indefinite"/>
<animate attributeName="opacity" values="0;0.75;0.75;0" dur="2.6s" begin="0.2s" repeatCount="indefinite"/>
</circle>
<circle r="2" fill="#f0c674" opacity="0">
<animateMotion path="M150,68 C270,90 410,90 530,68" dur="2.6s" begin="1s" repeatCount="indefinite"/>
<animate attributeName="opacity" values="0;0.65;0.65;0" dur="2.6s" begin="1s" repeatCount="indefinite"/>
</circle>
<circle r="1.8" fill="#8fbcdb" opacity="0">
<animateMotion path="M150,68 C270,90 410,90 530,68" dur="2.6s" begin="1.7s" repeatCount="indefinite"/>
<animate attributeName="opacity" values="0;0.6;0.6;0" dur="2.6s" begin="1.7s" repeatCount="indefinite"/>
</circle>

<!-- Center pulse -->
<circle cx="340" cy="45" r="6" fill="#f0c674" opacity="0">
<animate attributeName="opacity" values="0;0.12;0" dur="2s" repeatCount="indefinite"/>
<animate attributeName="r" values="4;14;4" dur="2s" repeatCount="indefinite"/>
</circle>

<!-- Main title -->
<text x="340" y="140" text-anchor="middle" font-family="'SF Mono', 'Fira Code', 'Consolas', monospace" font-size="46" font-weight="700" fill="#fff" letter-spacing="5" opacity="0">
pgclone
<animate attributeName="opacity" values="0;1" dur="0.5s" fill="freeze"/>
</text>

<!-- Subtitle -->
<text x="340" y="166" text-anchor="middle" font-family="system-ui, -apple-system, sans-serif" font-size="13" font-weight="400" fill="#fff" opacity="0">
Clone databases, schemas, and tables — directly from SQL
<animate attributeName="opacity" values="0;0.65" dur="0.4s" begin="0.3s" fill="freeze"/>
</text>

<!-- Badges -->
<g opacity="0">
<animate attributeName="opacity" values="0;1" dur="0.3s" begin="0.6s" fill="freeze"/>
<rect x="240" y="176" width="62" height="20" rx="10" fill="#fff" opacity="0.1"/>
<text x="271" y="190" text-anchor="middle" font-family="system-ui, -apple-system, sans-serif" font-size="10" font-weight="500" fill="#fff" opacity="0.8">v3.6.0</text>
<rect x="310" y="176" width="55" height="20" rx="10" fill="#fff" opacity="0.1"/>
<text x="337" y="190" text-anchor="middle" font-family="system-ui, -apple-system, sans-serif" font-size="10" font-weight="500" fill="#fff" opacity="0.8">C lang</text>
<rect x="373" y="176" width="70" height="20" rx="10" fill="#fff" opacity="0.1"/>
<text x="408" y="190" text-anchor="middle" font-family="system-ui, -apple-system, sans-serif" font-size="10" font-weight="500" fill="#fff" opacity="0.8">BSD license</text>
</g>

<!-- Feature cards -->
<g opacity="0"><animate attributeName="opacity" values="0;1" dur="0.35s" begin="0.8s" fill="freeze"/>
<rect x="40" y="212" width="140" height="72" rx="8" fill="#fff" opacity="0.07"/>
<rect x="40" y="212" width="140" height="72" rx="8" fill="none" stroke="#fff" stroke-width="0.5" opacity="0.12"/>
<text x="110" y="238" text-anchor="middle" font-family="system-ui, -apple-system, sans-serif" font-size="13" font-weight="500" fill="#f0c674">COPY protocol</text>
<text x="110" y="256" text-anchor="middle" font-family="system-ui, -apple-system, sans-serif" font-size="10" fill="#fff" opacity="0.45">High-throughput</text>
<text x="110" y="269" text-anchor="middle" font-family="system-ui, -apple-system, sans-serif" font-size="10" fill="#fff" opacity="0.45">data transfer</text>
</g>

<g opacity="0"><animate attributeName="opacity" values="0;1" dur="0.35s" begin="1s" fill="freeze"/>
<rect x="195" y="212" width="140" height="72" rx="8" fill="#fff" opacity="0.07"/>
<rect x="195" y="212" width="140" height="72" rx="8" fill="none" stroke="#fff" stroke-width="0.5" opacity="0.12"/>
<text x="265" y="238" text-anchor="middle" font-family="system-ui, -apple-system, sans-serif" font-size="13" font-weight="500" fill="#b5bd68">Parallel workers</text>
<text x="265" y="256" text-anchor="middle" font-family="system-ui, -apple-system, sans-serif" font-size="10" fill="#fff" opacity="0.45">Async cloning with</text>
<text x="265" y="269" text-anchor="middle" font-family="system-ui, -apple-system, sans-serif" font-size="10" fill="#fff" opacity="0.45">live progress bar</text>
</g>

<g opacity="0"><animate attributeName="opacity" values="0;1" dur="0.35s" begin="1.2s" fill="freeze"/>
<rect x="350" y="212" width="140" height="72" rx="8" fill="#fff" opacity="0.07"/>
<rect x="350" y="212" width="140" height="72" rx="8" fill="none" stroke="#fff" stroke-width="0.5" opacity="0.12"/>
<text x="420" y="238" text-anchor="middle" font-family="system-ui, -apple-system, sans-serif" font-size="13" font-weight="500" fill="#8fbcdb">Data masking</text>
<text x="420" y="256" text-anchor="middle" font-family="system-ui, -apple-system, sans-serif" font-size="10" fill="#fff" opacity="0.45">8 anonymization</text>
<text x="420" y="269" text-anchor="middle" font-family="system-ui, -apple-system, sans-serif" font-size="10" fill="#fff" opacity="0.45">strategies built-in</text>
</g>

<g opacity="0"><animate attributeName="opacity" values="0;1" dur="0.35s" begin="1.4s" fill="freeze"/>
<rect x="505" y="212" width="140" height="72" rx="8" fill="#fff" opacity="0.07"/>
<rect x="505" y="212" width="140" height="72" rx="8" fill="none" stroke="#fff" stroke-width="0.5" opacity="0.12"/>
<text x="575" y="238" text-anchor="middle" font-family="system-ui, -apple-system, sans-serif" font-size="13" font-weight="500" fill="#de935f">Full DDL</text>
<text x="575" y="256" text-anchor="middle" font-family="system-ui, -apple-system, sans-serif" font-size="10" fill="#fff" opacity="0.45">Tables, schemas, DBs</text>
<text x="575" y="269" text-anchor="middle" font-family="system-ui, -apple-system, sans-serif" font-size="10" fill="#fff" opacity="0.45">indexes, constraints</text>
</g>

<!-- SQL snippet terminal -->
<g opacity="0"><animate attributeName="opacity" values="0;1" dur="0.4s" begin="1.6s" fill="freeze"/>
<rect x="120" y="300" width="440" height="40" rx="6" fill="#1a3a54"/>
<rect x="120" y="300" width="440" height="40" rx="6" fill="none" stroke="#fff" stroke-width="0.5" opacity="0.06"/>
<circle cx="134" cy="312" r="3" fill="#de935f" opacity="0.7"/>
<circle cx="144" cy="312" r="3" fill="#f0c674" opacity="0.7"/>
<circle cx="154" cy="312" r="3" fill="#b5bd68" opacity="0.7"/>
<text x="170" y="328" font-family="'SF Mono', 'Fira Code', 'Consolas', monospace" font-size="11" fill="#8fbcdb">SELECT</text>
<text x="213" y="328" font-family="'SF Mono', 'Fira Code', 'Consolas', monospace" font-size="11" fill="#f0c674"> pgclone_table</text>
<text x="316" y="328" font-family="'SF Mono', 'Fira Code', 'Consolas', monospace" font-size="11" fill="#8fbcdb">(</text>
<text x="324" y="328" font-family="'SF Mono', 'Fira Code', 'Consolas', monospace" font-size="11" fill="#b5bd68">'host=...'</text>
<text x="390" y="328" font-family="'SF Mono', 'Fira Code', 'Consolas', monospace" font-size="11" fill="#8fbcdb">,</text>
<text x="398" y="328" font-family="'SF Mono', 'Fira Code', 'Consolas', monospace" font-size="11" fill="#b5bd68">'public'</text>
<text x="448" y="328" font-family="'SF Mono', 'Fira Code', 'Consolas', monospace" font-size="11" fill="#8fbcdb">,</text>
<text x="456" y="328" font-family="'SF Mono', 'Fira Code', 'Consolas', monospace" font-size="11" fill="#b5bd68">'users'</text>
<text x="498" y="328" font-family="'SF Mono', 'Fira Code', 'Consolas', monospace" font-size="11" fill="#8fbcdb">);</text>
<rect x="512" y="319" width="7" height="13" fill="#fff" opacity="0.7">
<animate attributeName="opacity" values="0.7;0;0.7" dur="1s" repeatCount="indefinite"/>
</rect>
</g>

<!-- Bottom bar -->
<g opacity="0"><animate attributeName="opacity" values="0;1" dur="0.35s" begin="1.9s" fill="freeze"/>
<rect x="0" y="350" width="680" height="30" fill="#fff" opacity="0.04"/>
<text x="120" y="369" text-anchor="middle" font-family="system-ui, -apple-system, sans-serif" font-size="10" fill="#fff" opacity="0.35">PostgreSQL</text>

<g font-family="system-ui, -apple-system, sans-serif" font-size="11" font-weight="500">
<g opacity="0"><animate attributeName="opacity" values="0;1" dur="0.15s" begin="2s" fill="freeze"/>
<rect x="190" y="357" width="34" height="18" rx="4" fill="#fff" opacity="0.08"/>
<text x="207" y="370" text-anchor="middle" fill="#fff" opacity="0.75">14</text>
</g>
<g opacity="0"><animate attributeName="opacity" values="0;1" dur="0.15s" begin="2.1s" fill="freeze"/>
<rect x="232" y="357" width="34" height="18" rx="4" fill="#fff" opacity="0.08"/>
<text x="249" y="370" text-anchor="middle" fill="#fff" opacity="0.75">15</text>
</g>
<g opacity="0"><animate attributeName="opacity" values="0;1" dur="0.15s" begin="2.2s" fill="freeze"/>
<rect x="274" y="357" width="34" height="18" rx="4" fill="#fff" opacity="0.08"/>
<text x="291" y="370" text-anchor="middle" fill="#fff" opacity="0.75">16</text>
</g>
<g opacity="0"><animate attributeName="opacity" values="0;1" dur="0.15s" begin="2.3s" fill="freeze"/>
<rect x="316" y="357" width="34" height="18" rx="4" fill="#fff" opacity="0.08"/>
<text x="333" y="370" text-anchor="middle" fill="#fff" opacity="0.75">17</text>
</g>
<g opacity="0"><animate attributeName="opacity" values="0;1" dur="0.15s" begin="2.4s" fill="freeze"/>
<rect x="358" y="357" width="34" height="18" rx="4" fill="#fff" opacity="0.08"/>
<text x="375" y="370" text-anchor="middle" fill="#fff" opacity="0.75">18</text>
</g>
</g>

<text x="530" y="369" text-anchor="middle" font-family="system-ui, -apple-system, sans-serif" font-size="10" fill="#fff" opacity="0.3">github.com/valehdba/pgclone</text>
</g>

</g>
</svg>
